<svg xmlns="http://www.w3.org/2000/svg" viewBox="0 0 119.62 88.7"><title>HTML CSS</title><g id="Layer_2" data-name="Layer 2"><g id="Layer_1-2" data-name="Layer 1"><path d="M7.12,79.83,0,0H78.21L71.08,79.82l-32,8.88Z" style="fill:#1572b6"/><path d="M39.1,81.91,65,74.74,71.07,6.53h-32Z" style="fill:#33a9dc"/><path d="M39.1,35.45h13l.89-10H39.1V15.63H63.66l-.24,2.63L61,45.24H39.1Z" style="fill:#fff"/><path d="M39.16,60.88h0l-10.9-2.94-.7-7.81H17.69l1.37,15.37,20.06,5.57h0Z" style="fill:#ebebeb"/><path d="M51.23,44.83,50,57.94,39.13,60.89V71.07L59.2,65.51l.15-1.65,1.7-19Z" style="fill:#fff"/><path d="M39.14,15.63v9.79H15.49l-.2-2.2-.45-5-.23-2.63Zm0,19.82v9.79H28.34l-.2-2.2-.45-5-.23-2.63Z" style="fill:#ebebeb"/><path d="M48.88,79.53,41.8.09h77.82l-7.09,79.42L80.66,88.35Z" style="fill:#e44d26"/><path d="M80.71,81.6l25.75-7.14,6.06-67.87H80.71Z" style="fill:#f16529"/><path d="M80.71,36H67.82l-.89-10H80.71V16.33H56.28l.23,2.61,2.39,26.85h21.8Zm0,25.3h0L69.82,58.43l-.69-7.77H59.34L60.71,66l20,5.54h0Z" style="fill:#ebebeb"/><path d="M80.68,36v9.74h12L91.54,58.42,80.68,61.36V71.49l20-5.54.15-1.65,2.29-25.65.24-2.62H80.68Zm0-19.72v9.74h23.53l.2-2.19.44-4.94.23-2.61Z" style="fill:#fff"/></g></g></svg>