<svg xmlns="http://www.w3.org/2000/svg" xmlns:xlink="http://www.w3.org/1999/xlink" viewBox="0 0 63.93 26.09"><defs><linearGradient id="linear-gradient" x1="-369.72" y1="413.65" x2="-369.71" y2="413.65" gradientTransform="matrix(561.01, 0, 0, -1011.59, 207471.01, 418460.95)" gradientUnits="userSpaceOnUse"><stop offset="0" stop-color="#919191"/><stop offset="1" stop-color="#fff"/></linearGradient><linearGradient id="linear-gradient-2" x1="-371.14" y1="413.99" x2="-371.13" y2="413.99" gradientTransform="matrix(373.69, 0, 0, -614.11, 138745.75, 254250.83)" gradientUnits="userSpaceOnUse"><stop offset="0" stop-color="#900"/><stop offset="1" stop-color="#e80000"/></linearGradient><linearGradient id="linear-gradient-3" x1="-366.85" y1="413.76" x2="-366.85" y2="413.79" gradientTransform="matrix(2127.17, 0, 0, -798.93, 780379.23, 330590.23)" gradientUnits="userSpaceOnUse"><stop offset="0" stop-color="#1a1a1a"/><stop offset="0.4" stop-color="#4a4a4c"/><stop offset="1" stop-color="#333"/></linearGradient></defs><title>Asset 2</title><g id="Layer_2" data-name="Layer 2"><g id="Layer_1-2" data-name="Layer 1"><path d="M57.45.53a.3.3,0,0,0,0,.15,4.18,4.18,0,0,1,0,1.54l-7.69,20a2.87,2.87,0,0,0,5.36,2l7.69-20a5.28,5.28,0,0,1,1-1.15L63.9,3h0s0,0,0,0c.2-.51-1.09-1.49-2.86-2.17S57.67,0,57.47.49A.05.05,0,0,0,57.45.53Z" style="opacity:0.10000000149011612;isolation:isolate"/><path d="M57.23.36a.3.3,0,0,0,0,.15A4.18,4.18,0,0,1,57.2,2l-7.69,20a2.87,2.87,0,0,0,5.36,2l7.69-20a5.28,5.28,0,0,1,1-1.15l.1-.11h0s0,0,0,0c.2-.51-1.09-1.49-2.86-2.17s-3.38-.82-3.58-.3a0,0,0,0,1,0,0Z" style="fill:url(#linear-gradient)"/><path d="M59.65,9.41,54.09,23.84A2.07,2.07,0,0,1,51.44,25a2.11,2.11,0,0,1-1.24-2.66l3.55-9.23a4.06,4.06,0,0,1,1.31-1.22,21.69,21.69,0,0,1,2.55-.82,7.54,7.54,0,0,0,2-1.66Z" style="fill:url(#linear-gradient-2)"/><path d="M57.18.5a4.18,4.18,0,0,1,0,1.53L49.51,22a2.85,2.85,0,0,0,1.65,3.66,2.38,2.38,0,0,0,.77.17,2.88,2.88,0,0,1-1-3.29L58.47,3A4.79,4.79,0,0,1,57.18.5Z" style="fill:#fff;opacity:0.30000001192092896;isolation:isolate"/><g style="opacity:0.5"><circle cx="54.72" cy="13.38" r="0.22" style="fill:#fff"/><circle cx="56.17" cy="14.98" r="0.33" style="fill:#fff"/><circle cx="53.95" cy="16.9" r="0.63" style="fill:#fff"/><circle cx="52.93" cy="18.07" r="0.33" style="fill:#fff"/><circle cx="54.26" cy="20.56" r="0.22" style="fill:#fff"/></g><path d="M15.06,12.15a1.07,1.07,0,0,0,1.36-.34c.44-.47.5-1.08.16-1.36s-.95-.11-1.36.36-.51,1.07-.16,1.33Zm-1,.88c-.09,0-.25.16-.11.22a.42.42,0,0,1,.27.45,5.12,5.12,0,0,1-1.77,2.35c-.11.11,0,.36.16.27a7,7,0,0,0,1.2-1.16,28.51,28.51,0,0,1-2.6,4.28c-2,2.83-5.16,5.43-7.29,5.43A3.47,3.47,0,0,1,.44,22c0-.19-.27-.22-.22,0,.39,2.33,2.19,3.24,4.36,3.24,2.38,0,5.18-1.72,6.73-3.49,2.5-2.85,4.11-6.14,3.68-8a.91.91,0,0,0-.94-.78ZM29.4,19.24c.66-.16,1.2-.52,1.2-1.1,0-.06-.11-.06-.11,0,0,.34-.39.62-.82.68-1,.16-3-1-4-2.27a5.62,5.62,0,0,0,4.1-.88,2.9,2.9,0,0,0,1.34-2c.11-1-.95-1.54-2.43-1a8.18,8.18,0,0,0-3.27,2.79A37.19,37.19,0,0,1,31.51,8c2.93-2.6,4.63-2.1,2,.66A17.58,17.58,0,0,1,29,11.87c-.44.19-.22.44.09.3A19.44,19.44,0,0,0,33.76,9c3.57-3.42.59-6-3.36-2.38a24.47,24.47,0,0,0-6,8.39,12,12,0,0,1-1.39,1.56.74.74,0,0,0-.14.15c-1.31,1.12-3.37,2.64-4.66,2.65-.91,0-1.3-.66-1.14-1.54A5.79,5.79,0,0,1,20,14.28c1.59-.72,2.52.68.44,1.81a5.86,5.86,0,0,1-2.13.64c-.45,0-.41.19,0,.2a6.09,6.09,0,0,0,2.33-.56c2.13-1,2.27-2.93-.05-3-2.52-.09-5.54,2.05-5.52,4.76,0,1.22,1,1.88,2.33,1.88,2.23,0,4.22-1.72,5.86-3.21.24-.2.46-.41.69-.64a8.07,8.07,0,0,0-.72,3.78,1.93,1.93,0,0,0,.82,1.33c.06,0,.2,0,.11-.14-.47-.56-.34-2.24.31-3.87a4.77,4.77,0,0,0,4.92,2Zm-2.68-4.72c2.61-2.33,3.63-.25,2,1-.86.66-2.57,1.16-3.11.83l-.11-.06c-.06-.11-.14-.22-.19-.34a13.22,13.22,0,0,1,1.44-1.46Zm14.51-2.65c1,.11.61-1.16-.45-.83-.47.14-.94,1-1.27,1.83a31.69,31.69,0,0,1-4,4.81c-1.09.93-2.09,1.18-.86-.56a16.61,16.61,0,0,0,1.5-2.19c.86-1.88-1-2.71-2.46-1.58-.86.66-2,2-2.93,2.76-.25.2-.19.5.06.3.72-.59,2-1.93,3.1-2.71.91-.7,1.27-.25.75.34a14,14,0,0,0-2.32,3.21c-.45,1.38.09,2,1,2,1.25,0,3.11-1.94,4.36-3.49.41-.52.86-1.13,1.25-1.72a46.41,46.41,0,0,1-3.63,6.16c-2,2.71-4.49,4.76-6.87,4.76a3.5,3.5,0,0,1-3.5-2.85c0-.19-.25-.22-.22,0,.39,2.33,2.19,3.24,4.36,3.24a9.13,9.13,0,0,0,6.29-3.08C38.59,18.86,39,15,40,12.86c.47-1,.9-1,1.25-1ZM54.43,8.59c.47-.81.45-1.44-.66-1.44A6.83,6.83,0,0,0,50.7,8.3c-.16.16-.09.25.11.16s.3-.14.45-.2c.8-.44.47.47.3.81A56.2,56.2,0,0,1,48,14.21a17.6,17.6,0,0,1-1.36,1.62,14,14,0,0,1-3.82,2.71c-4.13,1.54,1.14-5.48,1.57-6.05,1-1.22,3.16-3.35,3.82-4.42.47-.81.45-1.44-.66-1.44a6.83,6.83,0,0,0-3.07,1.16c-.16.16-.09.25.11.16s.3-.14.45-.2c.8-.44.47.47.3.81a56.19,56.19,0,0,1-3.52,5.14,14.7,14.7,0,0,1-2.3,2.49c-.27.22-.11.44.16.25a7.73,7.73,0,0,0,1-.95c-.75,1.49-1.36,3.6.61,3.85,1.69.22,3.68-1.48,5-2.75l.46-.46.11-.11c-.75,1.49-1.36,3.6.61,3.85,2.16.3,4.84-2.6,5.88-3.67.2-.2.14-.55-.2-.2A15.32,15.32,0,0,1,49,19.07c-4.13,1.54,1.14-5.48,1.57-6.05,1-1.25,3.17-3.37,3.83-4.43Z" style="opacity:0.10000000149011612;isolation:isolate"/><path d="M14.84,11.93a1.07,1.07,0,0,0,1.36-.34c.44-.47.5-1.08.16-1.36s-.95-.11-1.36.36-.5,1.06-.16,1.33Zm-1,.88c-.09,0-.25.16-.11.22a.42.42,0,0,1,.27.45,5.12,5.12,0,0,1-1.77,2.35c-.11.11.05.36.16.27A7,7,0,0,0,13.59,15,28.52,28.52,0,0,1,11,19.24c-2,2.83-5.16,5.43-7.29,5.43A3.47,3.47,0,0,1,.23,21.82c0-.19-.27-.22-.22,0,.39,2.33,2.19,3.24,4.36,3.24,2.38,0,5.18-1.72,6.73-3.49,2.5-2.85,4.11-6.14,3.68-8-.19-.7-.66-.81-.94-.78ZM29.17,19c.66-.16,1.2-.52,1.2-1.1,0-.06-.11-.06-.11,0,0,.34-.39.62-.82.68-1,.16-3-1-4-2.27a5.62,5.62,0,0,0,4.1-.88,2.9,2.9,0,0,0,1.34-2c.11-1-.95-1.54-2.43-1a8.18,8.18,0,0,0-3.27,2.79,37.19,37.19,0,0,1,6.12-7.56c2.93-2.6,4.63-2.1,2,.66a17.58,17.58,0,0,1-4.54,3.24c-.44.19-.22.44.09.3a19.43,19.43,0,0,0,4.71-3.15c3.57-3.42.59-6-3.36-2.38a24.36,24.36,0,0,0-6,8.39,12,12,0,0,1-1.39,1.56.75.75,0,0,0-.14.15c-1.31,1.12-3.37,2.64-4.66,2.65-.91,0-1.3-.66-1.14-1.54a5.79,5.79,0,0,1,2.91-3.57c1.59-.72,2.52.68.44,1.81a5.86,5.86,0,0,1-2.14.64c-.45,0-.41.19,0,.2a6.09,6.09,0,0,0,2.33-.56c2.14-1,2.27-2.93-.05-3-2.52-.09-5.54,2.05-5.52,4.76,0,1.22,1,1.88,2.33,1.88,2.23,0,4.22-1.72,5.86-3.21.24-.2.46-.41.69-.64A8.07,8.07,0,0,0,23,19.73a1.93,1.93,0,0,0,.82,1.33c.06,0,.2,0,.11-.14-.47-.56-.34-2.24.31-3.87a4.79,4.79,0,0,0,4.92,2ZM26.49,14.3c2.61-2.33,3.63-.25,2,1-.86.66-2.57,1.16-3.11.83l-.11-.06c-.06-.11-.14-.22-.19-.34a14.41,14.41,0,0,1,1.44-1.46ZM41,11.66c1,.11.61-1.16-.45-.83-.47.14-.94,1-1.27,1.83a31.7,31.7,0,0,1-4,4.81c-1.09.93-2.09,1.18-.86-.56a16.63,16.63,0,0,0,1.5-2.19c.86-1.88-1-2.71-2.46-1.58-.86.66-2,2-2.93,2.76-.25.2-.19.5.06.3.72-.59,2-1.93,3.1-2.71.91-.7,1.27-.25.75.34A14,14,0,0,0,32.08,17c-.45,1.38.09,2,1,2,1.25,0,3.11-1.94,4.36-3.49.41-.52.86-1.13,1.25-1.72A46.39,46.39,0,0,1,35.05,20c-2,2.71-4.49,4.76-6.87,4.76a3.5,3.5,0,0,1-3.5-2.85c0-.19-.25-.22-.22,0,.39,2.33,2.19,3.24,4.36,3.24a9.13,9.13,0,0,0,6.29-3.08c3.25-3.42,3.63-7.27,4.63-9.43.47-1,.91-1,1.25-1Zm13.21-3.3c.47-.81.45-1.44-.66-1.44a6.83,6.83,0,0,0-3.07,1.16c-.16.16-.09.25.11.16s.3-.14.45-.2c.8-.44.47.47.3.81A56.19,56.19,0,0,1,47.81,14a17.6,17.6,0,0,1-1.36,1.62,14,14,0,0,1-3.82,2.71c-4.13,1.54,1.14-5.48,1.57-6.05,1-1.22,3.16-3.35,3.82-4.42.47-.81.45-1.44-.66-1.44a6.83,6.83,0,0,0-3.07,1.16c-.16.16-.09.25.11.16s.3-.14.45-.2c.8-.44.47.47.3.81a56.18,56.18,0,0,1-3.52,5.14A14.71,14.71,0,0,1,39.34,16c-.27.22-.11.44.16.25a7.73,7.73,0,0,0,1-.95c-.75,1.49-1.36,3.6.61,3.85,1.69.22,3.68-1.48,5-2.75l.46-.46.11-.11c-.75,1.49-1.36,3.6.61,3.85,2.16.3,4.84-2.6,5.88-3.67.2-.2.14-.55-.2-.2a15.32,15.32,0,0,1-4.18,3.08c-4.13,1.54,1.14-5.48,1.57-6.05,1-1.25,3.17-3.37,3.83-4.43Z" style="fill:url(#linear-gradient-3)"/></g></g></svg>