<?xml version="1.0" encoding="utf-8"?>
<!-- Generator: Adobe Illustrator 21.1.0, SVG Export Plug-In . SVG Version: 6.00 Build 0)  -->
<svg version="1.1" id="Layer_1" xmlns="http://www.w3.org/2000/svg" xmlns:xlink="http://www.w3.org/1999/xlink" x="0px" y="0px"
	 viewBox="0 0 49.4 58.3" style="enable-background:new 0 0 49.4 58.3;" xml:space="preserve">
<style type="text/css">
	.st0{clip-path:url(#SVGID_2_);}
	.st1{fill:#394651;}
	.st2{fill:#FCFCFC;}
	.st3{clip-path:url(#SVGID_2_);fill:#2D2829;}
	.st4{opacity:0.2;clip-path:url(#SVGID_2_);fill:#231F20;}
	.st5{fill:#4D5D63;}
	.st6{fill:#FBB040;}
	.st7{fill:#42393C;}
	.st8{fill:#FFFFFF;}
</style>
<g>
	<defs>
		<path id="SVGID_1_" d="M2.5,13.2L22.3,1.9c1.5-0.9,3.5-0.9,5,0L47,13.3c1.5,0.9,2.5,2.6,2.5,4.3l-0.1,22.8c0,1.8-1,3.4-2.5,4.3
			L27.1,56.1c-1.5,0.9-3.5,0.9-5,0L2.5,44.6C0.9,43.7,0,42.1,0,40.3L0,17.5C0,15.8,1,14.1,2.5,13.2z"/>
	</defs>
	<clipPath id="SVGID_2_">
		<use xlink:href="#SVGID_1_"  style="overflow:visible;"/>
	</clipPath>
	<g id="XMLID_308_" class="st0">
		<path id="Torso_1_" class="st1" d="M71.6,15.5v3h-7V2c0-5.3-4.4-8.5-10.2-8.5H-3.3c-5.9,0-11.1,3.2-11.1,8.5v52
			c0,0.4,0.3,0.8,0.3,1.2c-1.5,0-2.8-0.2-4.3-0.6c-6.2-1.5-10.9-5.9-11.5-10.6c-0.6-4.6,2.7-9.3,9.5-13.1c1.5-0.8,2-2.7,1.2-4.2
			c-0.8-1.5-2.7-2-4.2-1.2C-35.7,32.5-36.6,40.6-36,44.9c1,7.3,7.5,13.7,16.2,15.8c2.1,0.5,4.3,0.8,6.4,0.8c1,0,2.1,0.3,3.1,0.2
			c1.9,1.5,4.3,2.8,7,2.8h57.6c5.9,0,10.2-5.1,10.2-10.4V41.5h7v4h10v-30H71.6z"/>
		<rect id="Lens_Reflection_1_" x="71.5" y="16.2" class="st2" width="8.2" height="2.1"/>
	</g>
	<path id="Nose_1_" class="st3" d="M26.9,30.6c0.9-0.2,1.6-0.6,1.6-1c0-0.6-1.4-1.5-3.1-1.5c-1.7,0-3.1,0.8-3.1,1.5
		c0,0.4,0.6,0.8,1.5,1c0.7,0.2,1.1,0.8,1.1,1.5v1.6c0,0.3-0.4,0.6-0.7,0.7c-0.3,0.1-0.4,0.3-0.4,0.4c0,0.3,0.8,0.7,1.8,0.7
		c1,0,1.8-0.4,1.8-0.7c0-0.2-0.4-0.3-0.7-0.4c-0.4-0.1-1-0.4-1-0.8v-1.6C25.5,31.4,26.2,30.8,26.9,30.6z"/>
	<path id="Shadow_2_" class="st4" d="M25.1-6.5H-3.7c-5.9,0-11.1,3.2-11.1,8.5v52c0,0.4,0.3,0.8,0.3,1.2c-1.5,0-2.8-0.2-4.3-0.6
		c-6.2-1.5-10.9-5.9-11.5-10.6c-0.6-4.6,2.7-9.3,9.5-13.1c1.5-0.8,2-2.7,1.2-4.2c-0.8-1.5-2.7-2-4.2-1.2
		C-36.1,32.5-37,40.6-36.4,44.9c1,7.3,7.5,13.7,16.2,15.8c2.1,0.5,4.3,0.8,6.4,0.8c1,0,2.1,0.3,3.1,0.2c1.9,1.5,4.3,2.8,7,2.8h28.9
		V-6.5z"/>
	<g id="Left_Stripes_1_" class="st0">
		<path id="XMLID_19_" class="st5" d="M4.5,38.4h-9v-3.3h9c0.9,0,1.7,0.7,1.7,1.7v0C6.2,37.7,5.4,38.4,4.5,38.4z"/>
		<path id="XMLID_18_" class="st5" d="M4.5,43.4h-9v-3.3h9c0.9,0,1.7,0.7,1.7,1.7l0,0C6.2,42.7,5.4,43.4,4.5,43.4z"/>
		<path id="XMLID_6_" class="st5" d="M4.5,48.5h-9v-3.3h9c0.9,0,1.7,0.7,1.7,1.7v0C6.2,47.7,5.4,48.5,4.5,48.5z"/>
	</g>
	<g id="Right_Stripes_1_" class="st0">
		<path id="XMLID_7_" class="st5" d="M44.6,38.7h9v-3.3h-9c-0.9,0-1.7,0.7-1.7,1.7v0C42.9,38,43.7,38.7,44.6,38.7z"/>
		<path id="XMLID_8_" class="st5" d="M44.6,43.8h9v-3.3h-9c-0.9,0-1.7,0.7-1.7,1.7v0C42.9,43,43.7,43.8,44.6,43.8z"/>
		<path id="XMLID_10_" class="st5" d="M44.6,48.8h9v-3.3h-9c-0.9,0-1.7,0.7-1.7,1.7l0,0C42.9,48,43.7,48.8,44.6,48.8z"/>
	</g>
	<g id="Right_Eye_1_" class="st0">
		<path id="Right_Eye_Outline_1_" class="st6" d="M33.4,24.3c0,0,4.8,3.5,8.4,1.9c3.6-1.7,4.2-5.4,4.3-5.6c0,0-4.3-4.7-7.9-3
			S33.4,24.3,33.4,24.3z"/>
		<ellipse id="Right-EyeBall_1_" class="st7" cx="38.8" cy="21.4" rx="3.6" ry="3.6"/>
		<circle id="Right-EyePupil_1_" class="st8" cx="37.4" cy="19.5" r="1.2"/>
	</g>
	<g id="Left_Eye_1_" class="st0">
		<path id="Left-Eye_Outline_1_" class="st6" d="M16,24.3c0,0-4.8,3.5-8.4,1.9c-3.6-1.7-4.2-5.4-4.3-5.6c0,0,4.3-4.7,7.9-3
			S16,24.3,16,24.3z"/>
		<ellipse id="Left_Eye_Ball_1_" class="st7" cx="10.6" cy="21.4" rx="3.6" ry="3.6"/>
		<circle id="Left-EyePupil_1_" class="st8" cx="12" cy="19.5" r="1.2"/>
	</g>
</g>
</svg>
